<?xml version="1.0" encoding="utf-8"?>
<!-- Generator: Adobe Illustrator 26.0.1, SVG Export Plug-In . SVG Version: 6.00 Build 0)  -->
<svg version="1.1" id="Layer_1" xmlns="http://www.w3.org/2000/svg" xmlns:xlink="http://www.w3.org/1999/xlink" x="0px" y="0px"
	 viewBox="0 0 1339.13 1339.13" style="enable-background:new 0 0 1339.13 1339.13;" xml:space="preserve">
<style type="text/css">
	.st0{fill:#5E2F26;}
	.st1{fill:#EF3E23;}
	.st2{fill:#FFFEFE;}
	.st3{fill:#F6BD74;}
	.st4{fill:#131718;}
	.st5{fill:#CFAA4F;}
	.st6{fill:#FFFFFF;}
	.st7{fill:#FEFEFE;}
	.st8{fill:#CFA94F;}
	.st9{fill:#EEEDED;}
	.st10{fill:#F5F5F4;}
	.st11{fill:#F7F7F6;}
	.st12{fill:#F8F7F7;}
	.st13{fill:#F9F9F9;}
	.st14{fill:#EFEEEE;}
	.st15{fill:#F5F4F4;}
	.st16{fill:#F6F5F5;}
	.st17{fill:#F8F8F7;}
	.st18{fill:#F6F5F4;}
	.st19{fill:#E7E6E5;}
	.st20{fill:#E6E5E5;}
	.st21{fill:#DBDAD9;}
	.st22{fill:#F1F0F0;}
	.st23{fill:#D9D8D7;}
	.st24{fill:#FAF9F9;}
	.st25{fill:#E8E8E7;}
	.st26{fill:#CAC9C9;}
	.st27{fill:#EDECEC;}
	.st28{fill:#E8E7E7;}
	.st29{fill:#E3E2E2;}
	.st30{fill:#EBEAEA;}
	.st31{fill:#D4D4D4;}
	.st32{fill:#DAD9D9;}
	.st33{fill:#F2F1F1;}
	.st34{fill:#D9D8D8;}
	.st35{fill:#191B19;}
	.st36{fill:#22231C;}
	.st37{fill:#131818;}
	.st38{fill:#141819;}
	.st39{fill:#1D1E1A;}
	.st40{fill:#1C1E1A;}
	.st41{fill:#131819;}
	.st42{fill:#14191A;}
	.st43{fill:#141919;}
	.st44{fill:#191D1E;}
	.st45{fill:#1F2324;}
	.st46{fill:#15191A;}
	.st47{fill:#CDA84F;}
	.st48{fill:#D7C179;}
	.st49{fill:#C57429;}
	.st50{fill:#B79A6F;}
	.st51{fill:#8B714B;}
	.st52{fill:none;}
	.st53{fill:#6B5D4F;}
</style>
<path class="st48" d="M1201.32,463.21c-0.27-8.52-3.84-16.88-8.59-24.26c-18.78-29.15-34.1-60.16-50.14-90.83
	c-23-44-58.72-72.79-106.94-86.85c-31.48-9.17-62.58-5.72-93.99-2.07c0,0,0,0,0,0c-9.31,5.58-20.14,2.25-30.16,5.64
	c-48.98,16.57-96.62,37.43-134.3,72.42c-42.48,39.45-70.21,89.96-63.15,150.22c3.88,33.11,4.81,66.32,8.62,99.36
	c6.36,55.22,17.64,107.89,59.44,148.71c5.51-0.07,7.56,3.21,7.93,8.13c0,0,0,0,0,0c4.98,0.56,7.91,4.4,11.59,7.1
	c40.78,29.86,86,46.1,137.05,45.39c27.67-0.38,54.23-9,82.41-7.82c38.01,1.6,67.52-20.89,96.62-42.14c2.9-2.11,4.25-5.4,4.12-9.12
	l0,0c-43.68,32.63-99.74,24.41-147.32,44.33c-4.34,1.82-10.2,0.01-15.35-0.11c0,0,0,0,0,0c-7.37,1.74-13.76-2.98-20.84-3.17
	c0,0,0,0,0,0c-4.6-0.11-8.72-1.25-11.86-5.46c5.8-2.35,10.88-1.82,15.58,1.95c6.78,0.27,13.57,0.54,20.36,0.81
	c12.71-1.06,24.62-4.82,36.46-9.52c20.83-8.27,42.21-15.39,64.72-16.85c28.74-1.87,47.56-18.01,62.16-40.72
	c23.15-36,39.49-74.9,48.72-116.73c0,0,0,0,0,0c1.14-9.26,2.28-18.53,3.42-27.79c-0.77-25.54,1.31-51.21-3.54-76.57
	c-11.44-51.32-34.32-96.47-66.33-138.66c-50.77-66.92-176.77-103.45-261.64-27.2c-10.66,9.58-22.53,17.99-29.75,30.87c0,0,0,0,0,0
	c-4.27,8.17-10.81,14.03-20.49,17.23c5.66-6.99,11.31-13.98,16.97-20.98c19.05-35.08,50.76-55.47,85.33-71.94
	c13.4-6.38,28-10.52,43.16-11.34c0,0,0,0,0,0c0,0,0,0,0,0c0.4,0,0.79,0,1.19,0c1.28,0,2.56-0.01,3.84-0.01
	c10.99-0.04,21.97-0.08,32.96-0.12c91.77,10.18,145.47,67.2,179.97,147.02c9.31,21.54,17.07,43.94,18.16,67.88
	c0.53,1.4,1.12,2.83,1.25,4.05c3.66,12.46,4.88,25.27,4.93,38.25c0,0,0,0,0,0c0,0,0,0,0-0.01c-0.01,11.39-0.02,22.78-0.02,34.16
	c0.16,6.09,1.44,12.35-2.32,17.88c-0.1,0.15-0.19,0.3-0.3,0.45c0,0,0,0,0,0c-0.09,0.82-0.13,1.64-0.15,2.47
	c-0.2,7.29,1.59,14.88-3.42,21.46c0,0,0,0.01-0.01,0.01c-4.27,37.69-18.55,72.14-34.4,106.07c0,0,0,0,0,0
	c3.88,0.6,6.62-1.28,8.94-4.1c16.96-20.69,32.79-42.68,38.38-68.96C1202.43,576.28,1203.13,519.73,1201.32,463.21z M758.33,615.46
	c0.72-0.68,0.97-1.56,1.12-2.49C759.08,613.8,758.7,614.63,758.33,615.46c-1.12-4.66-2.24-9.33-3.35-13.99c0,0,0,0,0,0
	c-12.72-41.14-26.72-82-25.14-126.03c0.95-26.54,14.92-55.04,35.2-67.05c-8.1,15.98-16.52,29.39-20.81,44.69
	c-8.44,30.15,1.09,59.26,4.73,88.65c2.18,17.61,6.16,34.99,9.34,52.48c0,0,0,0.01,0,0.01c3.91,3.94,3.15,9.02,3.36,13.86
	c3.15,7.49,7.04,14.87,3.46,28.8C761.86,626.61,760.1,621.03,758.33,615.46z M1052.31,739.9c-4.57,1.22-9.14,2.45-13.71,3.67
	c0,0,0,0,0,0c0,0,0,0,0,0c-77.26,21.16-153.29,26.41-224.11-20.32c-17.68-11.67-33.89-25.94-39.64-48.09
	c-0.01-0.02-0.01-0.04-0.02-0.06c-4.55-11.54-9.07-23.08-8.66-35.41c1.4-0.29,2.8-0.58,4.19-0.87c2.66,9.66,5.32,19.32,7.99,28.98
	c23.03,46.08,65.73,62.12,111.87,72.14c9.92,2.16,20.21,5.32,30.79,3.43c0,0,0,0,0,0c0,0,0,0,0,0c35.83,2.09,71.59,1.75,107.21-3.1
	c1.47-1.78,3.23-2.56,5.1-2.93c2.9-0.59,6.07-0.21,8.9-1.07c0,0,0,0,0,0c2.14,0.01,4.27,0.02,6.41,0.03c0,0,0.01,0,0.01,0
	c2.99-3.08,6.59-3.49,10.59-2.41C1059.5,738.86,1055.33,738.73,1052.31,739.9z M837.94,401.03c4.1-6.46,7.08-14.29,16.9-13.71
	c0,0,0,0,0,0c-1.37,1.78-2.74,3.57-4.11,5.35c-3.1,4.05-6.21,8.09-9.32,12.14c-16.93,40.03-23.48,82.55-27.2,125.22
	c-3.42,39.28,12.25,73.92,34.21,105.8c0,0,0,0,0,0c5.65,5.96,11.31,11.92,16.96,17.89c4.6,3.52,9.2,7.04,13.8,10.56c0,0,0,0,0,0
	c4.72,3.36,9.45,6.72,14.17,10.08c0,0,0,0,0,0c10.27,4.8,20.53,9.61,30.8,14.41c0,0,0,0,0,0c5.24,1.71,10.49,3.42,15.73,5.13
	c0.83,0.27,1.66,0.54,2.5,0.81c0,0,0,0,0,0c1.33,0.12,2.65,0.24,3.98,0.36c2.99,0.27,5.98,0.55,8.96,0.82
	c-0.48,0.21-0.97,0.41-1.45,0.62c-0.25,0.11-0.5,0.21-0.76,0.32c0.35-0.07,0.69-0.16,1.02-0.28c0.42-0.15,0.83-0.35,1.18-0.66
	c8.24-0.01,16.48-0.02,24.72-0.03c46.76-6.83,80.98-31.2,102.37-73.29c14.94-29.4,25.47-60.54,32.19-92.66
	c12.61-60.27-13.62-106.25-56.88-144.86c-17.74-15.83-38.66-26.96-60.39-36.47v0c0,0,0,0,0,0c-5.77-1.26-11.54-2.52-17.32-3.78
	c-5.71-0.55-11.42-1.09-17.13-1.64c-4.75-0.45-9.49-0.91-14.24-1.36c0,0,0,0,0,0c0,0,0,0,0,0c-2.63,1.69-5.4,2.67-8.27,3.21
	c-0.07,0.01-0.13,0.03-0.2,0.04c-2.9,0.52-5.89,0.58-8.93,0.42c-0.01-0.43,0.02-0.85,0.03-1.28c0.01-0.7-0.01-1.41,0.05-2.11
	c0,0,0,0,0,0c5.81-1.05,11.62-2.1,17.42-3.15c0,0,0,0,0,0c0,0,0,0,0,0c13.01,0.45,26.31-3.39,38.96,2.57c0,0,0,0,0,0
	c5.64,0.7,11.84-1,16.51,3.85c0,0,0,0,0,0c43.56,13.29,77.33,39.9,103.94,76.25c0,0,0,0,0,0c0.27,0.49,0.54,0.97,0.82,1.46
	c4.27,7.63,8.54,15.27,12.81,22.9c0,0,0,0,0,0c0.89,6.46,2.84,12.55,6.5,18.01c0,0.01,0,0.01,0.01,0.02
	c0.58,3.39,0.27,6.98,0.76,10.4c0.36,2.47,1.13,4.84,2.99,6.99c0.57,66.05-19.73,125.32-60.8,176.66
	c-19.14,23.93-45.54,38.09-76.94,40.96c-0.01,0-0.02,0-0.03,0.01c-15.42,5.11-30.84,5.1-46.26-0.03c0,0,0,0,0,0
	c-3.2-0.27-6.39-0.54-9.59-0.81c-5.82-2.41-12.85-1.36-17.81-6.22c-11.41-2.38-20.95-8.74-30.82-14.39c0,0,0,0,0,0
	c-4.78-3.27-9.55-6.54-14.33-9.81c-4.97-2.93-10.71-4.89-13.45-10.64c-7.42-4.13-12.94-10.23-17.75-17.07
	c-28.09-30.38-43.69-65.68-41.57-107.59C805.05,486.2,814.4,441.69,837.94,401.03C837.94,401.03,837.94,401.03,837.94,401.03z
	 M945.19,373.35c6.95,0.04,13.9,0.09,20.86,0.13c0,0,0,0,0,0c0,0,0,0,0,0c7.18,0.14,14.7-2.33,21.2,2.86c0,0,0,0,0,0
	c4.78,0.25,9.85-0.62,13.56,3.62c0,0,0,0,0,0c6.36,1.12,12.53,2.73,17.89,6.56c32.66,9.39,56.2,28.52,65.37,62.29
	c16.8,61.92,17.74,121.59-25.25,175.09c-28.05,34.9-69.3,50.58-106.59,39.71c0,0,0,0,0,0c-4.59-1.2-9.18-2.41-13.76-3.61
	c-11.24-4.12-22.32-8.55-31.44-16.67c-5.89-3.35-11.34-7.14-13.93-13.8c-11.23-2.66-14.29-13.38-20.56-20.92
	c-27.37-40.39-43.56-83.81-30.84-132.99c6.53-25.25,19.54-47.46,43.91-60.63c-0.83,2.62-0.93,5.9-2.61,7.77
	c-44.15,49.3-38.17,103.81-16.76,159.87c2.86,7.48,6.7,14.59,10.09,21.87c0,0,0,0.01,0,0.01c6.13,7.95,14.43,14.44,16.87,24.87
	c7.84,0.33,11.45,7.29,17.14,11c10.63,5.48,21.26,10.96,31.88,16.44c0,0,0,0,0,0c4.73,0.65,9.91-0.4,13.77,3.57c0,0,0.01,0,0.01,0
	c60.84,0.1,109.47-42.05,121.07-103.47c6.67-35.35,2.18-69.62-5.43-104.06c-7.06-31.99-29.9-49.14-57-62.67c0,0,0,0,0,0
	c-5.78-2.3-11.56-4.6-17.34-6.9c0,0,0,0,0,0c-4.6-1.29-9.2-2.58-13.81-3.87c-5.79-1.09-11.58-2.19-17.37-3.28c0,0,0,0,0,0
	c0,0,0,0,0,0c-6.97,0.1-13.94,0.2-20.91,0.31c-5.63,2.31-10.89,6.43-17.58,3.64c0,0,0,0,0,0
	C932.49,375.34,938.92,374.55,945.19,373.35C945.19,373.35,945.19,373.35,945.19,373.35z M997.65,421.29
	c5.51,0.64,10.18,3.05,14.25,6.72c29.93,15.76,44.05,41.81,37.4,75.02c-5.16,25.76,1.89,53.17-11.16,77.66c0,0,0,0,0,0
	c-2.95,6.09-5.42,12.63-13.22,14.18c-1.62,7.68-7.95,10.49-14.08,13.51c-52.39,28.91-118.16-7.77-127.87-71.18
	c-5.08-33.17-5.83-65.27,20.19-91.54c0,0,0,0,0,0c4.79-7.14,10.75-13.03,18.29-17.28c0,0,0,0.01,0,0.01
	c-0.75,9.74-7.62,15.55-13.97,21.7c-15.99,29.51-16.18,60.23-8.45,92.13c12.34,50.93,58.14,77.86,108.13,62.72c0,0,0,0,0.01,0
	c5.43-4.19,10.35-9.28,17.69-10.13c0.7-7.42,6.04-12.12,10.31-17.45c6.36-32.84,4.59-66.18,2.25-98.97
	c-1.32-18.49-13.74-34.88-29.76-46.57c0,0,0,0,0,0c-4.57-2.4-9.15-4.81-13.72-7.21c0,0,0,0,0,0c-3.48-1.08-6.96-2.17-10.44-3.25
	c0,0,0,0,0,0c0,0,0,0,0,0c-9.17-2.13-18.38-3.98-27.89-3.35c0,0,0,0,0,0c-0.02-0.51,0.01-1.03,0.01-1.54c0-0.51-0.02-1.01,0.01-1.52
	c10.55,0.71,21.48-3.02,31.59,2.72c0,0,0,0,0,0C990.95,418.14,994.95,417.86,997.65,421.29z M965.52,477.26
	c4.06,10.58,1.67,22.96,9.22,32.91c0.67,0.89,1.4,1.77,2.24,2.61c0-8.44,0-16.88,0-25.33c-1.23-3.4-2.45-6.81-3.68-10.21
	c0,0,0,0,0,0c8.86-0.67,15.14,3.74,16.41,11.91c1.75,11.21,3.71,23.24-3.66,33.36c-3.65,5.02-8.91,4.57-12.91-0.8c0,0,0,0,0,0
	C952.02,498.39,951.24,493.8,965.52,477.26C965.51,477.26,965.51,477.26,965.52,477.26z M974.08,566.2
	c23.05-4.35,34.17-17.84,33.56-41.49c-0.69-26.28-10.58-48.75-27.79-68.28c0,0,0,0,0,0l0,0c26.32,8.71,39.88,32.78,42.14,68.28
	c1.92,30.24-16.48,43.98-38.87,48.32c-11.26,2.18-23.12,1.87-30.99-9.33C959.63,562.68,966.24,567.68,974.08,566.2z M952.17,452.81
	L952.17,452.81L952.17,452.81L952.17,452.81c6.77-8.48,13.57-11.97,20.42-0.08C965.77,450.32,958.97,450.64,952.17,452.81z
	 M945.18,456.29c-0.57,6.51-2.85,12.35-6.93,17.47c-6.42,24.24-6.35,48.22,3.11,71.74c1.53,3.8,3.29,7.33-0.23,10.9v0c0,0,0,0,0,0
	c0,0,0,0,0-0.01c-25.4-38.37-27.03-61.01-6.47-89.75c0,0,0,0,0,0C936.98,461.99,939.89,457.94,945.18,456.29z M914.72,390.49
	c-3.78,5.18-7.78,10.06-14.8,10.82c0,0,0,0-0.01,0C903.69,396.12,905.18,387.81,914.72,390.49z M910.59,352.11
	c-2.52,1.84-5.41,2.82-8.46,3.42c-1.85,0.36-3.75,0.59-5.67,0.79c0,0,0,0,0,0c3.18-8.68,10.83-7.1,17.57-7.62
	C912.98,350.09,911.83,351.2,910.59,352.11z M993.92,314.13c40.12,2.43,70.74,23.82,96.74,51.57
	c44.71,47.72,70.98,104.07,65.72,170.61c-6.62,83.78-47.08,146.38-123.86,183.77c-1.51,0.74-2.8,1.94-4.19,2.92c0,0,0,0,0,0
	c-12.59,2.18-24.31,8.93-37.65,7.21c0,0-0.01,0-0.01,0c-1.65,0.72-3.3,1.28-4.97,1.76c-13.32,3.82-27.06,0.61-40.58,0.96
	c-3.47,0.16-6.94,0.32-10.41,0.48c-7.66-7.79-23.38,0.51-27.74-13.87c12.62,2.97,24.89,7.74,38.15,7.43v0c0,0,0,0,0,0
	c12.78-0.05,25.56-0.1,38.34-0.15c0,0,0,0,0,0c104.62-11.54,189.68-146.02,149.5-257.01c-0.07-0.19-0.13-0.37-0.19-0.56c0,0,0,0,0,0
	c-0.28-3.09-0.56-6.19-0.84-9.28c-0.4-5.44-1.85-10.41-6.24-14.1c0,0,0,0,0,0c-2.12-9.77-6.52-18.43-12.36-26.4
	c-0.46-0.62-0.9-1.25-1.37-1.86c0,0,0,0,0-0.01c-32.27-54.82-73.37-97.15-142.17-100.32c0,0,0,0,0,0
	c-11.76,0.52-23.52,1.05-35.28,1.59c-0.01,0-0.02,0-0.03,0C953.59,308.61,973.54,308.7,993.92,314.13z M927.71,317.79
	c-3.38,8.19-10.94,6.43-17.39,7.31c0,0,0,0-0.01,0C914.56,318.98,920.99,318.03,927.71,317.79z M844.71,365.99
	C844.71,365.99,844.71,365.99,844.71,365.99L844.71,365.99c3.04-5.4,6.9-9.7,13.65-10.1C855.22,361.17,852.22,366.62,844.71,365.99
	C844.71,365.99,844.71,365.99,844.71,365.99C844.71,365.99,844.71,365.99,844.71,365.99z M813.46,407.87
	C813.46,407.87,813.46,407.87,813.46,407.87c-0.35-5.28,4.34-7.13,7.04-10.33c0,0,0,0,0,0c2.35-3.47,4.69-6.93,7.04-10.4
	c0,0,0,0,0,0c0,0,0,0,0,0c2.68-6.03,6.41-10.74,13.73-10.97c-3.56,4.7-7.12,9.41-10.68,14.11c0,0,0,0,0,0c0,0,0,0,0,0
	c-2.25,3.57-4.5,7.14-6.75,10.71c-2.23,3.62-4.46,7.24-6.7,10.85c-17.29,37.83-26.79,77.68-32.99,118.7
	c-4.18,27.66,2.18,52.38,15.06,76c14.61,26.82,35.15,49.58,52.56,74.5c0,0,0,0,0,0c7.94,7.24,15.88,14.48,23.82,21.73c0,0,0,0,0,0
	c9.65,5.59,19.31,11.18,28.97,16.77c0,0,0,0,0,0c-14.37,3.77-23.14-6.15-32.97-13.48c-10.89-3.67-16.94-12.78-23.72-21.06
	c-22.55-23.74-43.6-48.73-60.73-76.7c-23.67-38.67-16.71-79.37-6.94-120.09C787.05,459.7,798.04,432.87,813.46,407.87z
	 M981.72,344.1c-0.57,0.24-1.13,0.49-1.7,0.73c0.46-0.38,0.99-0.61,1.55-0.76c0.16-0.04,0.32-0.08,0.48-0.11
	C981.94,344,981.83,344.05,981.72,344.1z"/>
<g>
	<path d="M790.05,743.69c-0.37-4.92-2.43-8.2-7.93-8.13c-5.87,6.26-12.15,12.17-17.53,18.82c-38.17,47.19-76.15,94.52-114.19,141.81
		c-1.16,4.65-4.45,7.38-9.08,10.28c-1.44-6.62,1.31-10.82,5.06-14.69c17.62-42.52,39.51-82.98,59.93-124.16
		c3.63-7.31,14.96-17.1,5.69-23.49c-8.31-5.73-15.41,7.05-21.33,13.21c-19.19,19.98-37.81,40.51-56.11,61.31
		c-32.34,36.76-64.27,73.87-96.38,110.83c6.28-22.42,15.51-43.18,24.82-63.91c13.9-30.93,30.39-60.77,40.66-93.22
		c7.87-24.86-0.87-35.71-26.32-32.95c-51.76,5.61-101.24,20.81-150.47,36.83c-3.17,1.03-8.65,1.28-7.51,8.34
		c13.51,2.38,24.45-3.09,37.37-7.59c39.54-13.79,80.47-24.29,122.68-27.17c17.16-1.17,20.99,3.76,14.82,20.38
		c-7.59,20.43-16.19,40.53-25.23,60.38c-15.24,33.46-32.36,66.07-45.38,100.52c-2.17,5.73-5.58,13.18,0.9,17.4
		c7.4,4.81,11.06-3.63,15-7.69c37.43-38.53,71.46-80.1,106.85-120.46c13.23-15.09,26.57-30.1,39.85-45.14
		c-1.69,11.74-6.17,21.42-10.71,31.07c-17.35,36.93-34.89,73.78-51.86,110.88c-2.37,5.18-6.61,12.78,0.97,16.98
		c6.5,3.6,10.45-3.11,13.97-7.29c18.92-22.53,37.76-45.13,56.24-68.01c21.55-26.68,42.7-53.69,65.77-82.75c0,5,0.57,6.9-0.08,8.17
		c-25.43,49.55-50.8,99.12-76.54,148.51c-23.38,44.86-46.98,89.59-66.61,136.26c-1.86,4.41-5.95,10.89-0.56,13.83
		c5.85,3.19,9.13-3.02,10.51-8.18c9.01-33.74,28.03-62.85,43.29-93.68C709.91,901.62,754.55,824.95,790.05,743.69
		C790.05,743.7,790.05,743.69,790.05,743.69z"/>
	<path d="M466.62,958.45l-0.54-0.09l-0.47,0.28c-0.75,0.45-1.51,0.87-2.28,1.25c-0.83,0.41-1.67,0.87-2.48,1.36
		c-1.64,0.96-3.15,1.82-4.53,2.59c-1.37,0.77-2.74,1.51-4.11,2.24c-1.36,0.72-2.84,1.45-4.41,2.18c-1.61,0.75-3.43,1.62-5.44,2.59
		c-2.59,1.17-5.46,2.31-8.52,3.4c-3.05,1.08-6.21,2.07-9.37,2.95c-3.17,0.88-6.33,1.64-9.41,2.25c-3.08,0.62-5.99,1.1-8.65,1.44
		c-1.1,0.13-1.95-0.01-2.61-0.44c-0.63-0.41-1.06-1.12-1.32-2.18c-0.26-1.08-0.06-2.25,0.63-3.57c0.75-1.46,1.8-3.2,3.11-5.18
		c0.86-0.2,1.66-0.39,2.41-0.58c0.9-0.23,1.82-0.46,2.71-0.68c5.39-1.13,11.16-3.46,17.18-6.91c1.15-0.7,2.32-1.52,3.48-2.44
		c1.27-1.01,2.4-2.42,3.34-4.2l0.1-0.19l0.04-0.21c0.72-3.5,0.46-6.08-0.82-7.88c-1.17-1.66-2.79-2.94-4.84-3.8
		c-2.34-0.91-4.77-1.12-7.21-0.63c-2.39,0.49-5.21,1.89-8.63,4.29l-0.15,0.12c-3.45,3.17-6.53,6.35-9.15,9.46
		c-2.56,3.04-5.2,5.9-7.83,8.51l-0.27,0.27l-0.11,0.37c-0.05,0.17-0.07,0.32-0.12,0.49c-1.89,1.11-3.79,2.23-5.68,3.38
		c-2.09,1.27-4.23,2.45-6.33,3.51c-6.05,3.04-10.64,2.88-14.02-0.51c-1.34-1.35-2.66-2.78-3.92-4.24c-1.31-1.51-2.64-3.03-3.97-4.53
		c-1.94-2.39-4.05-3.42-6.29-3.05c-2.03,0.34-4.46,2.11-7.43,5.37c-2.52,2.67-4.96,5.45-7.26,8.25c-2.32,2.83-4.67,5.66-6.98,8.41
		c-0.73,0.89-1.47,1.78-2.21,2.69c0.8-2.42,1.7-4.77,2.7-7.04c1.95-4.47,4.01-9,6.11-13.46c1.85-3.86,3.91-7.28,6.12-10.17
		c2.21-2.88,4.85-5.66,7.84-8.28c10.45-9.33,20.37-19.62,29.49-30.58c9.11-10.96,17.66-23.26,25.4-36.56
		c1.16-2.08,2.31-4.22,3.42-6.36c1.14-2.2,2.23-4.44,3.23-6.64c1.41-3.1,1.96-5.73,1.71-8.02c-0.27-2.45-1.38-4.34-3.33-5.64
		c-1.79-1.1-3.85-1.22-5.96-0.33c-1.86,0.79-3.74,2.18-5.6,4.15c-1.99,2.12-3.96,4.34-5.87,6.6c-1.92,2.27-3.79,4.62-5.58,7
		c-6.88,9.53-13.73,19.03-20.55,28.51c-6.82,9.48-13.38,19.47-19.51,29.71c-1.44,2.41-2.84,4.87-4.18,7.32
		c-1.31,2.4-2.73,4.83-4.22,7.23c-0.77,1.29-1.51,2.61-2.22,3.93c-0.69,1.29-1.51,2.63-2.45,4l-0.07,0.12
		c-0.41,0.74-0.98,1.83-1.69,3.26c-0.71,1.42-1.42,2.89-2.16,4.41c-0.84,1.77-1.74,3.67-2.7,5.73c-1.21,2.7-2.36,5.33-3.4,7.79
		c-3.11,6.78-6.14,13.6-9,20.28c-0.51,1.18-1,2.39-1.43,3.58c-0.45,1.23-0.81,2.47-1.07,3.65c-1.07,4.71,0.6,6.68,2.2,7.49
		l0.12,0.05c0.7,0.29,1.43,0.43,2.17,0.43c0.55,0,1.1-0.08,1.66-0.23c1.29-0.36,2.54-1.22,3.8-2.62c1.04-1.12,2.03-2.27,2.95-3.41
		c0.91-1.13,1.84-2.29,2.78-3.46c2.49-3.12,5.03-6.36,7.55-9.63c2.44-3.18,4.96-6.41,7.5-9.58c1.22-1.52,2.52-3.06,3.85-4.57
		c1.01-1.14,2.15-2.06,3.42-2.75c0.26,0.21,0.53,0.44,0.79,0.67c0.54,0.48,1.12,0.97,1.72,1.45c1.34,1.28,2.67,2.57,3.93,3.85
		c1.35,1.35,2.76,2.66,4.25,3.92c3.78,2.9,8.48,3.62,13.98,2.15c3.59-0.93,7.2-2.39,10.74-4.34c1.39-0.77,2.79-1.63,4.2-2.59
		c-0.69,2.78-0.76,5.08-0.22,6.96c0.68,2.35,2.12,4.15,4.29,5.34c1.52,0.97,3.22,1.53,5.04,1.66c0.4,0.03,0.8,0.04,1.22,0.04
		c1.38,0,2.86-0.16,4.4-0.46c3.65-0.75,8.02-1.81,12.98-3.16c4.98-1.35,10.16-3.06,15.39-5.07c5.22-2.01,10.43-4.33,15.46-6.89
		c5.08-2.58,9.62-5.53,13.49-8.74c1.09-0.9,1.72-2.11,1.89-3.58C469.1,959.67,467.86,958.65,466.62,958.45z M416.56,957.53
		c3.23-3.57,5.14-4.97,6.23-5.5c0.44-0.21,0.84-0.35,1.23-0.35c0.51,0,0.97,0.23,1.44,0.83c-0.95,0.87-1.74,1.57-2.38,2.09
		c-0.75,0.62-1.54,1.12-2.38,1.51c-0.88,0.41-1.98,0.8-3.27,1.17C417.16,957.36,416.87,957.44,416.56,957.53z M360.04,929.97
		c0.27-0.48,0.56-0.97,0.86-1.48c1.98-3.39,4.32-7.18,6.95-11.26c2.64-4.09,5.54-8.46,8.62-13c3.1-4.57,6.26-9.11,9.4-13.5
		c3.15-4.42,6.29-8.7,9.3-12.72c3-4,5.83-7.58,8.39-10.62c0.95-1.1,1.7-1.97,2.23-2.6c0.49-0.58,0.96-1.08,1.42-1.5
		c0.45-0.4,0.97-0.8,1.57-1.18c0.21-0.13,0.43-0.28,0.67-0.44c-0.12,0.3-0.26,0.61-0.43,0.91l-0.07,0.13
		c-0.94,2.11-1.92,4.27-2.95,6.47c-1.02,2.17-2.12,4.28-3.28,6.24c-6.71,11.05-14,21.5-21.65,31.07
		C374.46,914.78,367.4,922.65,360.04,929.97z"/>
	<path d="M1019.03,835.39c0.51,0.42,1.32,0.86,2.48,0.86c0.32,0,0.66-0.03,1.03-0.11c0.75-0.15,1.45-0.59,2.14-1.34
		c0.56-0.6,1.06-1.34,1.5-2.17c0.43-0.81,0.76-1.66,0.99-2.53c0.26-0.99,0.31-1.86,0.15-2.66c-0.98-4.88-4.31-5.27-6.21-5.07
		l-0.14,0.02c-0.56,0.11-1.1,0.44-1.7,1.05c-0.5,0.5-0.84,1.04-1.02,1.6c-0.69,1.32-1.1,2.64-1.24,3.93
		c-0.14,1.35-0.05,2.57,0.27,3.65C1017.64,833.79,1018.23,834.73,1019.03,835.39z"/>
	<path d="M1163.24,818.56c-0.68-0.52-1.59-0.58-2.7-0.18c-1.2,0.43-2.6,1.14-4.28,2.18c-1.55,0.96-3.22,2.05-4.94,3.24
		c-1.63,1.12-3.02,1.97-4.2,2.56c-4.75,2.55-9.33,4.26-13.64,5.06c-4.32,0.81-8.6,1-12.75,0.57c-1.73-0.15-3.16-0.76-4.37-1.85
		c-1.43-1.3-2.86-2.68-4.19-4.06c-2.08-2.45-4.68-3.37-7.53-2.65c-2.61,0.66-5.28,2.51-8.18,5.66c-1.39,1.53-2.82,3.13-4.28,4.8
		c0.12-1.18,0.22-2.2,0.3-3.04c0.19-2.08,0.1-3.52-0.27-4.53c-0.54-1.45-1.79-2.18-3.27-1.88c-0.84,0.17-1.97,0.52-3.44,1.06
		l-0.71,0.26l-0.21,0.73c-0.93,3.31-1.84,6.61-2.76,9.91c-0.12,0.11-0.23,0.21-0.35,0.32c-1.22,1.13-2.46,2.35-3.69,3.63
		c-1.19,1.24-2.4,2.46-3.58,3.62c-1.17,1.15-2.28,2.19-3.26,3.06c-6.78,5.45-13.65,10.5-20.41,15.03
		c-6.7,4.49-13.63,8.35-20.63,11.51c-1.98,0.96-3.99,1.74-5.98,2.31c-1.58,0.45-3.03,0.52-4.43,0.2c-0.28-0.8-0.53-2.24-0.46-4.82
		c0.07-2.8,0.43-5.61,1.05-8.3c0.41-1.54,0.78-3.03,1.11-4.44c0.32-1.38,0.69-2.77,1.1-4.13c0.54-1.82,0.91-3.43,1.11-4.78
		c0.24-1.71,0.01-2.96-0.72-3.82c-0.69-0.91-1.9-1.33-3.62-1.24c-1.59,0.08-3.13,0.86-4.56,2.31l-0.21,0.21l-0.11,0.28
		c-0.1,0.23-0.17,0.46-0.27,0.69c-2.36,0.77-4.77,1.52-7.21,2.26c-3.43,1.03-6.77,1.64-9.93,1.81l-0.14,0.01
		c-4.71,0.71-9.33,0.91-13.74,0.58c-4.55-0.34-9.26-0.56-14.06-0.68c-0.72,0.01-1.65,0.13-2.84,0.36c-1.53,0.3-2.62,0.99-3.23,2.05
		l-0.07,0.14c-0.82,1.81-1.61,3.57-2.39,5.29c-3.53,1.79-7.09,3.67-10.62,5.62c-4.35,2.4-8.71,4.63-12.96,6.64
		c-4.07,1.88-8.14,3.7-12.1,5.43c-3.82,1.67-7.42,2.68-10.71,3c-2.42,0.28-4.28-0.07-5.56-1.04c-1.21-0.92-1.84-2.81-1.88-5.64
		c-0.03-1.02-0.02-2.11,0.05-3.25c0.07-1.27,0.05-2.42-0.05-3.45c-0.22-1.89-1.13-2.82-1.86-3.27c-1.01-0.62-2.23-0.75-3.64-0.39
		c-1.17,0.3-2.45,0.93-3.82,1.86c-1.34,0.91-2.63,2.07-3.83,3.43c-1.59,1.75-3.16,3.61-4.64,5.53c-1.45,1.88-2.96,3.75-4.52,5.6
		c-2.4,3.03-4.85,6.19-7.29,9.38c-2.18,2.86-4.72,5.54-7.55,7.97c-0.15-0.34-0.3-0.92-0.35-1.92c-0.05-1.09-0.01-2.3,0.14-3.6
		c0.16-1.36,0.34-2.58,0.55-3.67c0.48-2.76,1.09-5.6,1.82-8.42c0.73-2.82,1.46-5.78,2.18-8.75c0.68-2.42,0.74-4.09,0.19-5.27
		c-0.63-1.34-1.99-2.06-4.04-2.16c-0.95-0.13-1.99,0.11-3.11,0.72c-0.97,0.53-2.18,1.42-3.7,2.74l-0.14,0.14
		c-1.18,1.33-2.24,2.69-3.15,4.05c-0.88,1.3-1.8,2.72-2.71,4.18c-0.31,0.45-0.62,0.91-0.95,1.38c0.08-0.28,0.17-0.56,0.26-0.85
		c0.34-1.13,0.72-2.39,1.14-3.73c0.62-1.84,1.28-4.47-0.16-6.12c-0.89-1.02-2.31-1.35-4.22-0.98c-1.46,0.17-2.94,1.03-4.39,2.58
		c-1.36,1.46-2.34,3-2.93,4.62c-1.09,3.3-1.96,5.9-2.58,7.8c-0.61,1.85-1.18,3.52-1.69,5.01c-0.23,0.18-0.47,0.35-0.7,0.54
		c-2.04,1.59-3.91,3.03-5.62,4.31c-1.65,1.24-3.37,2.51-5.13,3.76c-1.69,1.21-3.56,2.47-5.55,3.74c-1.94,1.24-4.19,2.71-6.85,4.47
		c-3.31,2.06-6.97,4.12-10.88,6.13c-3.95,2.02-8.02,3.94-12.1,5.68c-4.1,1.75-8.23,3.35-12.29,4.75c-4.04,1.39-7.88,2.57-11.41,3.51
		c-1.58,0.42-2.87,0.37-3.96-0.15c-1.05-0.5-1.85-1.48-2.43-2.99c-0.6-1.53-0.53-3.26,0.19-5.29c0.78-2.18,1.91-4.79,3.37-7.77
		c1.19-0.44,2.29-0.87,3.32-1.28c1.17-0.47,2.37-0.95,3.54-1.41c7-2.48,14.29-6.62,21.69-12.31c1.4-1.13,2.8-2.43,4.19-3.86
		c1.48-1.53,2.7-3.57,3.62-6.06l0.08-0.2l0.01-0.21c0.33-4.68-0.45-7.97-2.38-10.05c-1.81-1.95-4.12-3.32-6.93-4.08
		c-3.22-0.78-6.42-0.63-9.51,0.44c-3.06,1.06-6.54,3.42-10.65,7.22l-0.13,0.14c-4.05,4.85-7.6,9.67-10.56,14.32
		c-2.9,4.56-5.94,8.9-9.02,12.9l-0.23,0.3l-0.06,0.38c-0.21,1.35-0.26,2.6-0.14,3.71l0.33,2.95c0.11,0.97,0.19,1.91,0.24,2.81
		c0.05,0.8-0.03,1.71-0.22,2.72c-0.88,5.01-0.7,8.83,0.56,11.69c1.28,2.91,3.45,4.97,6.46,6.13c1.86,0.87,3.84,1.31,5.9,1.31
		c0.31,0,0.62-0.01,0.93-0.03c2.28-0.14,4.75-0.67,7.34-1.56c4.76-1.66,10.43-3.88,16.85-6.58c6.44-2.71,13.08-5.93,19.73-9.58
		c6.66-3.65,13.22-7.7,19.5-12.03c1.28-0.88,2.52-1.79,3.73-2.7c-0.67,2.18-1.28,4.32-1.82,6.36c-0.77,2.94-1.56,5.9-2.35,8.88
		c-0.68,2.42-0.68,4.22,0.01,5.49c0.51,0.94,1.55,2.11,3.6,2.32c0.12,0.02,0.24,0.02,0.37,0.02c1.1,0,2.37-0.62,4.05-1.97
		c1.61-1.29,2.81-2.75,3.59-4.35c0.5-0.74,0.93-1.53,1.28-2.36c0.33-0.8,0.65-1.59,0.91-2.3c0.76-1.78,1.76-3.93,2.95-6.39
		c1.21-2.5,2.41-4.88,3.56-7.07c1.15-2.21,2.25-4.13,3.25-5.7c0.63-0.99,1.03-1.5,1.27-1.75c0.03,0.24,0.05,0.51,0.06,0.8
		c0.02,0.48,0.02,0.89,0,1.21l0,0.06l0,0.06c0.07,2.09,0.07,4.27,0,6.47c-0.08,2.42,0.16,4.57,0.74,6.46
		c0.75,2.08,1.97,3.45,3.62,4.08c1.59,0.6,3.45,0.47,5.55-0.37c1.88-0.76,3.97-2.06,6.22-3.88c2.22-1.78,4.55-4.09,6.95-6.87
		l0.07-0.08c0.62-0.83,1.64-2.19,3.06-4.07c1.42-1.88,2.91-3.87,4.47-5.96c1.52-2.04,3.01-3.89,4.45-5.51
		c1.05-1.18,1.75-1.8,2.2-2.13c0.06,0.11,0.14,0.28,0.24,0.54c1.85,5.39,5.13,8.6,9.73,9.56c4.41,0.92,9.87-0.03,16.64-2.87
		c1.31-0.5,2.6-1.03,3.84-1.58c1.19-0.53,2.44-1.04,3.74-1.54c5.35-2.25,10.92-5.03,16.54-8.24c3.16-1.8,6.39-3.71,9.65-5.69
		c-0.55,1.26-1.1,2.52-1.63,3.76c-0.89,1.89-1.64,3.83-2.25,5.78c-0.59,1.92-1.15,3.84-1.66,5.75c-0.79,3.39-1.05,6.41-0.76,9
		c0.3,2.73,1.1,4.87,2.38,6.36c1.37,1.6,3.19,2.42,5.39,2.42c0.01,0,0.01,0,0.02,0c2.07,0,4.3-0.83,6.82-2.53
		c4.32-2.95,7.93-6.79,10.74-11.4c2.76-4.54,4.89-9.8,6.31-15.63c0.33-1.03,0.58-1.99,0.74-2.85c0.15-0.81,0.28-1.59,0.4-2.33
		l0.38-2.39c0.09-0.58,0.21-1.28,0.36-2.09c2.34-0.12,4.78-0.46,7.28-1.01c2.9-0.64,5.88-1.39,8.88-2.23
		c3.3-1.01,6.41-1.96,9.35-2.84c1.06-0.32,2.14-0.68,3.23-1.06c-0.58,3.09-1.15,6.12-1.69,9.08c-0.91,5.74-0.58,10.16,1,13.49
		c1.67,3.51,4.65,5.45,8.68,5.61c0.02,0,0.04,0,0.07,0c1.83,0,3.79-0.21,5.83-0.62c2.11-0.42,4.24-1.16,6.29-2.18
		c15.73-7.14,31.36-17.85,46.57-31.87c-0.47,1.81-0.94,3.62-1.39,5.4c-0.4,1.51-0.76,3.01-1.05,4.47s-0.52,2.95-0.68,4.52
		c-0.24,4.25,2.15,5.39,3.6,5.69l0.24,0.03c0.1,0,0.2,0.01,0.31,0.01c1.13,0,2.25-0.28,3.33-0.83c1.26-0.64,2.3-1.86,3.19-3.72
		c0.8-1.37,1.5-2.81,2.07-4.29c0.53-1.35,1.13-2.68,1.82-3.98c1.56-3.15,3.14-6.3,4.74-9.46c1.58-3.11,3.22-6.23,4.88-9.27
		c0.9-1.61,1.97-3.04,3.18-4.27c0.87-0.87,1.8-1.45,2.85-1.73c1.53,1.86,3.27,3.31,5.18,4.31c2.07,1.09,4.3,1.88,6.62,2.36
		c2.3,0.47,4.75,0.72,7.28,0.68c2.5-0.02,5.04-0.16,7.51-0.42c4.94-0.37,9.95-1.93,14.9-4.64c4.85-2.65,9.84-6.2,14.82-10.55
		l0.08-0.08c0.57-0.58,1.08-1.39,1.55-2.49c0.38-0.88,0.88-1.9,1.48-3.03l0.15-0.28l0.02-0.32
		C1164.18,819.54,1163.68,818.89,1163.24,818.56z M971.95,868.35c-0.04,1.2-0.25,2.5-0.62,3.91c-0.89,3.61-2.16,7.01-3.77,10.12
		c-1.58,3.04-3.62,5.62-6.14,7.71c-0.44,0.4-0.92,0.63-1.47,0.7c-0.18,0.02-0.35,0.05-0.53,0.09c0.66-3.58,1.62-6.93,2.88-9.99
		c1.55-3.76,3.5-7.42,5.8-10.89c0.78-1.22,1.59-2.18,2.4-2.86c0.34-0.28,0.56-0.36,0.72-0.36c0.11,0,0.19,0.04,0.24,0.07
		C971.59,866.94,971.99,867.21,971.95,868.35z M778.74,889.32c3.52-5.33,6.39-8.74,8.53-10.15c0.68-0.45,1.4-0.81,2.16-0.81
		c0.78,0,1.62,0.38,2.51,1.41c-1.25,1.5-2.3,2.72-3.13,3.63c-0.92,0.99-1.94,1.85-3.03,2.55c-1.14,0.73-2.57,1.47-4.25,2.2
		C780.74,888.49,779.81,888.88,778.74,889.32z"/>
	<path d="M494.34,809.69c-10.49-5.36-21.81-6.46-33.37-6.75c-47.37-1.18-94.54,2.5-141.48,7.82
		c-53.11,6.03-105.99,14.21-156.38,33.41c-8.58,3.27-17.13,6.81-23.68,13.68c-2.16,2.27-3.25,5.17-1.51,7.83
		c2,3.06,4.61,1.34,7.43,0.29c29.32-10.94,57.57-5.04,85.46,5.78c30.96,17.8,41.67,43.35,31.27,78.03
		c-6.67,22.26-11.91,44.95-17.53,67.52c-0.82,3.3-5.37,7.64,0.62,10.31c4.1,1.83,6.31-0.8,7.96-3.57
		c5.24-4.05,47.11-66.47,49.06-70.65c2.23-4.77,4.73-9.41,7.18-14.07c0,0,0,0,0,0l0,0c1.54-2.92,3.07-5.86,4.49-8.83
		c6.56-13.68,17.38-26.39,20.44-41.86c0.2-1,0.24-4.16-1.22-2.88s-50.82,78.35-50.82,78.35l-13.9,21.93l-10.79,13.82L262,986.2
		c0,0,5.47-29.14,9.98-43.2c11.2-34.91-22.55-66.69-40.89-75.12s-13.31-7.66-20.55-10.06c-5.4-1.79-11.19-2.41-16.83-3.44
		c-5.58-1.02-11.9,0.28-17.7-6.42c103.71-27.61,207.16-43.29,313.42-34.16c6.35,4.95,12.71,9.89,19.06,14.84
		C508.63,817.96,504.46,811.33,494.34,809.69z"/>
</g>
</svg>
