<svg width="1066" height="829" viewBox="0 0 1066 829" fill="none" xmlns="http://www.w3.org/2000/svg">
<path d="M1064.32 208.21C1064.05 199.69 1060.48 191.33 1055.73 183.95C1036.95 154.8 1021.63 123.79 1005.59 93.12C982.59 49.12 946.87 20.33 898.65 6.27C867.17 -2.9 836.07 0.550024 804.66 4.20002C795.35 9.78002 784.52 6.45001 774.5 9.84001C725.52 26.41 677.88 47.27 640.2 82.26C597.72 121.71 569.99 172.22 577.05 232.48C580.93 265.59 581.86 298.8 585.67 331.84C592.03 387.06 603.31 439.73 645.11 480.55C650.62 480.48 652.67 483.76 653.04 488.68C658.02 489.24 660.95 493.08 664.63 495.78C705.41 525.64 750.63 541.88 801.68 541.17C829.35 540.79 855.91 532.17 884.09 533.35C922.1 534.95 951.61 512.46 980.71 491.21C983.61 489.1 984.96 485.81 984.83 482.09C941.15 514.72 885.09 506.5 837.51 526.42C833.17 528.24 827.31 526.43 822.16 526.31C814.79 528.05 808.4 523.33 801.32 523.14C796.72 523.03 792.6 521.89 789.46 517.68C795.26 515.33 800.34 515.86 805.04 519.63C811.82 519.9 818.61 520.17 825.4 520.44C838.11 519.38 850.02 515.62 861.86 510.92C882.69 502.65 904.07 495.53 926.58 494.07C955.32 492.2 974.14 476.06 988.74 453.35C1011.89 417.35 1028.23 378.45 1037.46 336.62C1038.6 327.36 1039.74 318.09 1040.88 308.83C1040.11 283.29 1042.19 257.62 1037.34 232.26C1025.9 180.94 1003.02 135.79 971.01 93.6C920.24 26.68 794.24 -9.84999 709.37 66.4C698.71 75.98 686.84 84.39 679.62 97.27C675.35 105.44 668.81 111.3 659.13 114.5C664.79 107.51 670.44 100.52 676.1 93.52C695.15 58.44 726.86 38.05 761.43 21.58C774.83 15.2 789.43 11.06 804.59 10.24C804.99 10.24 805.38 10.24 805.78 10.24C807.06 10.24 808.34 10.23 809.62 10.23C820.61 10.19 831.59 10.15 842.58 10.11C934.35 20.29 988.05 77.31 1022.55 157.13C1031.86 178.67 1039.62 201.07 1040.71 225.01C1041.24 226.41 1041.83 227.84 1041.96 229.06C1045.62 241.52 1046.84 254.33 1046.89 267.31C1046.89 267.31 1046.89 267.31 1046.89 267.3C1046.88 278.69 1046.87 290.08 1046.87 301.46C1047.03 307.55 1048.31 313.81 1044.55 319.34C1044.45 319.49 1044.36 319.64 1044.25 319.79C1044.16 320.61 1044.12 321.43 1044.1 322.26C1043.9 329.55 1045.69 337.14 1040.68 343.72C1040.68 343.72 1040.68 343.73 1040.67 343.73C1036.4 381.42 1022.12 415.87 1006.27 449.8C1010.15 450.4 1012.89 448.52 1015.21 445.7C1032.17 425.01 1048 403.02 1053.59 376.74C1065.43 321.28 1066.13 264.73 1064.32 208.21ZM621.33 360.46C622.05 359.78 622.3 358.9 622.45 357.97C622.08 358.8 621.7 359.63 621.33 360.46C620.21 355.8 619.09 351.13 617.98 346.47C605.26 305.33 591.26 264.47 592.84 220.44C593.79 193.9 607.76 165.4 628.04 153.39C619.94 169.37 611.52 182.78 607.23 198.08C598.79 228.23 608.32 257.34 611.96 286.73C614.14 304.34 618.12 321.72 621.3 339.21V339.22C625.21 343.16 624.45 348.24 624.66 353.08C627.81 360.57 631.7 367.95 628.12 381.88C624.86 371.61 623.1 366.03 621.33 360.46ZM915.31 484.9C910.74 486.12 906.17 487.35 901.6 488.57C824.34 509.73 748.31 514.98 677.49 468.25C659.81 456.58 643.6 442.31 637.85 420.16C637.84 420.14 637.84 420.12 637.83 420.1C633.28 408.56 628.76 397.02 629.17 384.69C630.57 384.4 631.97 384.11 633.36 383.82C636.02 393.48 638.68 403.14 641.35 412.8C664.38 458.88 707.08 474.92 753.22 484.94C763.14 487.1 773.43 490.26 784.01 488.37C819.84 490.46 855.6 490.12 891.22 485.27C892.69 483.49 894.45 482.71 896.32 482.34C899.22 481.75 902.39 482.13 905.22 481.27C907.36 481.28 909.49 481.29 911.63 481.3H911.64C914.63 478.22 918.23 477.81 922.23 478.89C922.5 483.86 918.33 483.73 915.31 484.9ZM700.94 146.03C705.04 139.57 708.02 131.74 717.84 132.32C716.47 134.1 715.1 135.89 713.73 137.67C710.63 141.72 707.52 145.76 704.41 149.81C687.48 189.84 680.93 232.36 677.21 275.03C673.79 314.31 689.46 348.95 711.42 380.83C717.07 386.79 722.73 392.75 728.38 398.72C732.98 402.24 737.58 405.76 742.18 409.28C746.9 412.64 751.63 416 756.35 419.36C766.62 424.16 776.88 428.97 787.15 433.77C792.39 435.48 797.64 437.19 802.88 438.9C803.71 439.17 804.54 439.44 805.38 439.71C806.71 439.83 808.03 439.95 809.36 440.07C812.35 440.34 815.34 440.62 818.32 440.89C817.84 441.1 817.35 441.3 816.87 441.51C816.62 441.62 816.37 441.72 816.11 441.83C816.46 441.76 816.8 441.67 817.13 441.55C817.55 441.4 817.96 441.2 818.31 440.89C826.55 440.88 834.79 440.87 843.03 440.86C889.79 434.03 924.01 409.66 945.4 367.57C960.34 338.17 970.87 307.03 977.59 274.91C990.2 214.64 963.97 168.66 920.71 130.05C902.97 114.22 882.05 103.09 860.32 93.58C854.55 92.32 848.78 91.06 843 89.8C837.29 89.25 831.58 88.71 825.87 88.16C821.12 87.71 816.38 87.25 811.63 86.8C809 88.49 806.23 89.47 803.36 90.01C803.29 90.02 803.23 90.04 803.16 90.05C800.26 90.57 797.27 90.63 794.23 90.47C794.22 90.04 794.25 89.62 794.26 89.19C794.27 88.49 794.25 87.78 794.31 87.08C800.12 86.03 805.93 84.98 811.73 83.93C824.74 84.38 838.04 80.54 850.69 86.5C856.33 87.2 862.53 85.5 867.2 90.35C910.76 103.64 944.53 130.25 971.14 166.6C971.41 167.09 971.68 167.57 971.96 168.06C976.23 175.69 980.5 183.33 984.77 190.96C985.66 197.42 987.61 203.51 991.27 208.97C991.27 208.98 991.27 208.98 991.28 208.99C991.86 212.38 991.55 215.97 992.04 219.39C992.4 221.86 993.17 224.23 995.03 226.38C995.6 292.43 975.3 351.7 934.23 403.04C915.09 426.97 888.69 441.13 857.29 444C857.28 444 857.27 444 857.26 444.01C841.84 449.12 826.42 449.11 811 443.98C807.8 443.71 804.61 443.44 801.41 443.17C795.59 440.76 788.56 441.81 783.6 436.95C772.19 434.57 762.65 428.21 752.78 422.56C748 419.29 743.23 416.02 738.45 412.75C733.48 409.82 727.74 407.86 725 402.11C717.58 397.98 712.06 391.88 707.25 385.04C679.16 354.66 663.56 319.36 665.68 277.45C668.05 231.2 677.4 186.69 700.94 146.03ZM808.19 118.35C815.14 118.39 822.09 118.44 829.05 118.48C836.23 118.62 843.75 116.15 850.25 121.34C855.03 121.59 860.1 120.72 863.81 124.96C870.17 126.08 876.34 127.69 881.7 131.52C914.36 140.91 937.9 160.04 947.07 193.81C963.87 255.73 964.81 315.4 921.82 368.9C893.77 403.8 852.52 419.48 815.23 408.61C810.64 407.41 806.05 406.2 801.47 405C790.23 400.88 779.15 396.45 770.03 388.33C764.14 384.98 758.69 381.19 756.1 374.53C744.87 371.87 741.81 361.15 735.54 353.61C708.17 313.22 691.98 269.8 704.7 220.62C711.23 195.37 724.24 173.16 748.61 159.99C747.78 162.61 747.68 165.89 746 167.76C701.85 217.06 707.83 271.57 729.24 327.63C732.1 335.11 735.94 342.22 739.33 349.5V349.51C745.46 357.46 753.76 363.95 756.2 374.38C764.04 374.71 767.65 381.67 773.34 385.38C783.97 390.86 794.6 396.34 805.22 401.82C809.95 402.47 815.13 401.42 818.99 405.39H819C879.84 405.49 928.47 363.34 940.07 301.92C946.74 266.57 942.25 232.3 934.64 197.86C927.58 165.87 904.74 148.72 877.64 135.19C871.86 132.89 866.08 130.59 860.3 128.29C855.7 127 851.1 125.71 846.49 124.42C840.7 123.33 834.91 122.23 829.12 121.14C822.15 121.24 815.18 121.34 808.21 121.45C802.58 123.76 797.32 127.88 790.63 125.09C795.49 120.34 801.92 119.55 808.19 118.35ZM860.65 166.29C866.16 166.93 870.83 169.34 874.9 173.01C904.83 188.77 918.95 214.82 912.3 248.03C907.14 273.79 914.19 301.2 901.14 325.69C898.19 331.78 895.72 338.32 887.92 339.87C886.3 347.55 879.97 350.36 873.84 353.38C821.45 382.29 755.68 345.61 745.97 282.2C740.89 249.03 740.14 216.93 766.16 190.66C770.95 183.52 776.91 177.63 784.45 173.38V173.39C783.7 183.13 776.83 188.94 770.48 195.09C754.49 224.6 754.3 255.32 762.03 287.22C774.37 338.15 820.17 365.08 870.16 349.94C870.16 349.94 870.16 349.94 870.17 349.94C875.6 345.75 880.52 340.66 887.86 339.81C888.56 332.39 893.9 327.69 898.17 322.36C904.53 289.52 902.76 256.18 900.42 223.39C899.1 204.9 886.68 188.51 870.66 176.82C866.09 174.42 861.51 172.01 856.94 169.61C853.46 168.53 849.98 167.44 846.5 166.36C837.33 164.23 828.12 162.38 818.61 163.01C818.59 162.5 818.62 161.98 818.62 161.47C818.62 160.96 818.6 160.46 818.63 159.95C829.18 160.66 840.11 156.93 850.22 162.67C853.95 163.14 857.95 162.86 860.65 166.29ZM828.52 222.26C832.58 232.84 830.19 245.22 837.74 255.17C838.41 256.06 839.14 256.94 839.98 257.78C839.98 249.34 839.98 240.9 839.98 232.45C838.75 229.05 837.53 225.64 836.3 222.24C845.16 221.57 851.44 225.98 852.71 234.15C854.46 245.36 856.42 257.39 849.05 267.51C845.4 272.53 840.14 272.08 836.14 266.71C815.02 243.39 814.24 238.8 828.52 222.26C828.51 222.26 828.51 222.26 828.52 222.26ZM837.08 311.2C860.13 306.85 871.25 293.36 870.64 269.71C869.95 243.43 860.06 220.96 842.85 201.43C869.17 210.14 882.73 234.21 884.99 269.71C886.91 299.95 868.51 313.69 846.12 318.03C834.86 320.21 823 319.9 815.13 308.7C822.63 307.68 829.24 312.68 837.08 311.2ZM815.17 197.81C821.94 189.33 828.74 185.84 835.59 197.73C828.77 195.32 821.97 195.64 815.17 197.81ZM808.18 201.29C807.61 207.8 805.33 213.64 801.25 218.76C794.83 243 794.9 266.98 804.36 290.5C805.89 294.3 807.65 297.83 804.13 301.4C804.13 301.4 804.13 301.4 804.13 301.39C778.73 263.02 777.1 240.38 797.66 211.64C799.98 206.99 802.89 202.94 808.18 201.29ZM777.72 135.49C773.94 140.67 769.94 145.55 762.92 146.31C762.92 146.31 762.92 146.31 762.91 146.31C766.69 141.12 768.18 132.81 777.72 135.49ZM773.59 97.11C771.07 98.95 768.18 99.93 765.13 100.53C763.28 100.89 761.38 101.12 759.46 101.32C762.64 92.64 770.29 94.22 777.03 93.7C775.98 95.09 774.83 96.2 773.59 97.11ZM856.92 59.13C897.04 61.56 927.66 82.95 953.66 110.7C998.37 158.42 1024.64 214.77 1019.38 281.31C1012.76 365.09 972.3 427.69 895.52 465.08C894.01 465.82 892.72 467.02 891.33 468C878.74 470.18 867.02 476.93 853.68 475.21H853.67C852.02 475.93 850.37 476.49 848.7 476.97C835.38 480.79 821.64 477.58 808.12 477.93C804.65 478.09 801.18 478.25 797.71 478.41C790.05 470.62 774.33 478.92 769.97 464.54C782.59 467.51 794.86 472.28 808.12 471.97C820.9 471.92 833.68 471.87 846.46 471.82C951.08 460.28 1036.14 325.8 995.96 214.81C995.89 214.62 995.83 214.44 995.77 214.25C995.49 211.16 995.21 208.06 994.93 204.97C994.53 199.53 993.08 194.56 988.69 190.87C986.57 181.1 982.17 172.44 976.33 164.47C975.87 163.85 975.43 163.22 974.96 162.61C974.96 162.61 974.96 162.61 974.96 162.6C942.69 107.78 901.59 65.45 832.79 62.28C821.03 62.8 809.27 63.33 797.51 63.87C797.5 63.87 797.49 63.87 797.48 63.87C816.59 53.61 836.54 53.7 856.92 59.13ZM790.71 62.79C787.33 70.98 779.77 69.22 773.32 70.1C773.32 70.1 773.32 70.1 773.31 70.1C777.56 63.98 783.99 63.03 790.71 62.79ZM707.71 110.99C710.75 105.59 714.61 101.29 721.36 100.89C718.22 106.17 715.22 111.62 707.71 110.99ZM676.46 152.87C676.11 147.59 680.8 145.74 683.5 142.54C685.85 139.07 688.19 135.61 690.54 132.14C693.22 126.11 696.95 121.4 704.27 121.17C700.71 125.87 697.15 130.58 693.59 135.28C691.34 138.85 689.09 142.42 686.84 145.99C684.61 149.61 682.38 153.23 680.14 156.84C662.85 194.67 653.35 234.52 647.15 275.54C642.97 303.2 649.33 327.92 662.21 351.54C676.82 378.36 697.36 401.12 714.77 426.04C722.71 433.28 730.65 440.52 738.59 447.77C748.24 453.36 757.9 458.95 767.56 464.54C753.19 468.31 744.42 458.39 734.59 451.06C723.7 447.39 717.65 438.28 710.87 430C688.32 406.26 667.27 381.27 650.14 353.3C626.47 314.63 633.43 273.93 643.2 233.21C650.05 204.7 661.04 177.87 676.46 152.87ZM844.72 89.1C844.15 89.34 843.59 89.59 843.02 89.83C843.48 89.45 844.01 89.22 844.57 89.07C844.73 89.03 844.89 88.99 845.05 88.96C844.94 89 844.83 89.05 844.72 89.1Z" fill="#D7C179"/>
<path d="M653.05 488.69C652.68 483.77 650.62 480.49 645.12 480.56C639.25 486.82 632.97 492.73 627.59 499.38C589.42 546.57 551.44 593.9 513.4 641.19C512.24 645.84 508.95 648.57 504.32 651.47C502.88 644.85 505.63 640.65 509.38 636.78C527 594.26 548.89 553.8 569.31 512.62C572.94 505.31 584.27 495.52 575 489.13C566.69 483.4 559.59 496.18 553.67 502.34C534.48 522.32 515.86 542.85 497.56 563.65C465.22 600.41 433.29 637.52 401.18 674.48C407.46 652.06 416.69 631.3 426 610.57C439.9 579.64 456.39 549.8 466.66 517.35C474.53 492.49 465.79 481.64 440.34 484.4C388.58 490.01 339.1 505.21 289.87 521.23C286.7 522.26 281.22 522.51 282.36 529.57C295.87 531.95 306.81 526.48 319.73 521.98C359.27 508.19 400.2 497.69 442.41 494.81C459.57 493.64 463.4 498.57 457.23 515.19C449.64 535.62 441.04 555.72 432 575.57C416.76 609.03 399.64 641.64 386.62 676.09C384.45 681.82 381.04 689.27 387.52 693.49C394.92 698.3 398.58 689.86 402.52 685.8C439.95 647.27 473.98 605.7 509.37 565.34C522.6 550.25 535.94 535.24 549.22 520.2C547.53 531.94 543.05 541.62 538.51 551.27C521.16 588.2 503.62 625.05 486.65 662.15C484.28 667.33 480.04 674.93 487.62 679.13C494.12 682.73 498.07 676.02 501.59 671.84C520.51 649.31 539.35 626.71 557.83 603.83C579.38 577.15 600.53 550.14 623.6 521.08C623.6 526.08 624.17 527.98 623.52 529.25C598.09 578.8 572.72 628.37 546.98 677.76C523.6 722.62 500 767.35 480.37 814.02C478.51 818.43 474.42 824.91 479.81 827.85C485.66 831.04 488.94 824.83 490.32 819.67C499.33 785.93 518.35 756.82 533.61 725.99C572.91 646.62 617.55 569.95 653.05 488.69Z" fill="black"/>
<path d="M329.62 703.45L329.08 703.36L328.61 703.64C327.86 704.09 327.1 704.51 326.33 704.89C325.5 705.3 324.66 705.76 323.85 706.25C322.21 707.21 320.7 708.07 319.32 708.84C317.95 709.61 316.58 710.35 315.21 711.08C313.85 711.8 312.37 712.53 310.8 713.26C309.19 714.01 307.37 714.88 305.36 715.85C302.77 717.02 299.9 718.16 296.84 719.25C293.79 720.33 290.63 721.32 287.47 722.2C284.3 723.08 281.14 723.84 278.06 724.45C274.98 725.07 272.07 725.55 269.41 725.89C268.31 726.02 267.46 725.88 266.8 725.45C266.17 725.04 265.74 724.33 265.48 723.27C265.22 722.19 265.42 721.02 266.11 719.7C266.86 718.24 267.91 716.5 269.22 714.52C270.08 714.32 270.88 714.13 271.63 713.94C272.53 713.71 273.45 713.48 274.34 713.26C279.73 712.13 285.5 709.8 291.52 706.35C292.67 705.65 293.84 704.83 295 703.91C296.27 702.9 297.4 701.49 298.34 699.71L298.44 699.52L298.48 699.31C299.2 695.81 298.94 693.23 297.66 691.43C296.49 689.77 294.87 688.49 292.82 687.63C290.48 686.72 288.05 686.51 285.61 687C283.22 687.49 280.4 688.89 276.98 691.29L276.83 691.41C273.38 694.58 270.3 697.76 267.68 700.87C265.12 703.91 262.48 706.77 259.85 709.38L259.58 709.65L259.47 710.02C259.42 710.19 259.4 710.34 259.35 710.51C257.46 711.62 255.56 712.74 253.67 713.89C251.58 715.16 249.44 716.34 247.34 717.4C241.29 720.44 236.7 720.28 233.32 716.89C231.98 715.54 230.66 714.11 229.4 712.65C228.09 711.14 226.76 709.62 225.43 708.12C223.49 705.73 221.38 704.7 219.14 705.07C217.11 705.41 214.68 707.18 211.71 710.44C209.19 713.11 206.75 715.89 204.45 718.69C202.13 721.52 199.78 724.35 197.47 727.1C196.74 727.99 196 728.88 195.26 729.79C196.06 727.37 196.96 725.02 197.96 722.75C199.91 718.28 201.97 713.75 204.07 709.29C205.92 705.43 207.98 702.01 210.19 699.12C212.4 696.24 215.04 693.46 218.03 690.84C228.48 681.51 238.4 671.22 247.52 660.26C256.63 649.3 265.18 637 272.92 623.7C274.08 621.62 275.23 619.48 276.34 617.34C277.48 615.14 278.57 612.9 279.57 610.7C280.98 607.6 281.53 604.97 281.28 602.68C281.01 600.23 279.9 598.34 277.95 597.04C276.16 595.94 274.1 595.82 271.99 596.71C270.13 597.5 268.25 598.89 266.39 600.86C264.4 602.98 262.43 605.2 260.52 607.46C258.6 609.73 256.73 612.08 254.94 614.46C248.06 623.99 241.21 633.49 234.39 642.97C227.57 652.45 221.01 662.44 214.88 672.68C213.44 675.09 212.04 677.55 210.7 680C209.39 682.4 207.97 684.83 206.48 687.23C205.71 688.52 204.97 689.84 204.26 691.16C203.57 692.45 202.75 693.79 201.81 695.16L201.74 695.28C201.33 696.02 200.76 697.11 200.05 698.54C199.34 699.96 198.63 701.43 197.89 702.95C197.05 704.72 196.15 706.62 195.19 708.68C193.98 711.38 192.83 714.01 191.79 716.47C188.68 723.25 185.65 730.07 182.79 736.75C182.28 737.93 181.79 739.14 181.36 740.33C180.91 741.56 180.55 742.8 180.29 743.98C179.22 748.69 180.89 750.66 182.49 751.47L182.61 751.52C183.31 751.81 184.04 751.95 184.78 751.95C185.33 751.95 185.88 751.87 186.44 751.72C187.73 751.36 188.98 750.5 190.24 749.1C191.28 747.98 192.27 746.83 193.19 745.69C194.1 744.56 195.03 743.4 195.97 742.23C198.46 739.11 201 735.87 203.52 732.6C205.96 729.42 208.48 726.19 211.02 723.02C212.24 721.5 213.54 719.96 214.87 718.45C215.88 717.31 217.02 716.39 218.29 715.7C218.55 715.91 218.82 716.14 219.08 716.37C219.62 716.85 220.2 717.34 220.8 717.82C222.14 719.1 223.47 720.39 224.73 721.67C226.08 723.02 227.49 724.33 228.98 725.59C232.76 728.49 237.46 729.21 242.96 727.74C246.55 726.81 250.16 725.35 253.7 723.4C255.09 722.63 256.49 721.77 257.9 720.81C257.21 723.59 257.14 725.89 257.68 727.77C258.36 730.12 259.8 731.92 261.97 733.11C263.49 734.08 265.19 734.64 267.01 734.77C267.41 734.8 267.81 734.81 268.23 734.81C269.61 734.81 271.09 734.65 272.63 734.35C276.28 733.6 280.65 732.54 285.61 731.19C290.59 729.84 295.77 728.13 301 726.12C306.22 724.11 311.43 721.79 316.46 719.23C321.54 716.65 326.08 713.7 329.95 710.49C331.04 709.59 331.67 708.38 331.84 706.91C332.1 704.67 330.86 703.65 329.62 703.45ZM279.56 702.53C282.79 698.96 284.7 697.56 285.79 697.03C286.23 696.82 286.63 696.68 287.02 696.68C287.53 696.68 287.99 696.91 288.46 697.51C287.51 698.38 286.72 699.08 286.08 699.6C285.33 700.22 284.54 700.72 283.7 701.11C282.82 701.52 281.72 701.91 280.43 702.28C280.16 702.36 279.87 702.44 279.56 702.53ZM223.04 674.97C223.31 674.49 223.6 674 223.9 673.49C225.88 670.1 228.22 666.31 230.85 662.23C233.49 658.14 236.39 653.77 239.47 649.23C242.57 644.66 245.73 640.12 248.87 635.73C252.02 631.31 255.16 627.03 258.17 623.01C261.17 619.01 264 615.43 266.56 612.39C267.51 611.29 268.26 610.42 268.79 609.79C269.28 609.21 269.75 608.71 270.21 608.29C270.66 607.89 271.18 607.49 271.78 607.11C271.99 606.98 272.21 606.83 272.45 606.67C272.33 606.97 272.19 607.28 272.02 607.58L271.95 607.71C271.01 609.82 270.03 611.98 269 614.18C267.98 616.35 266.88 618.46 265.72 620.42C259.01 631.47 251.72 641.92 244.07 651.49C237.46 659.78 230.4 667.65 223.04 674.97Z" fill="black"/>
<path d="M882.03 580.39C882.54 580.81 883.35 581.25 884.51 581.25C884.83 581.25 885.17 581.22 885.54 581.14C886.29 580.99 886.99 580.55 887.68 579.8C888.24 579.2 888.74 578.46 889.18 577.63C889.61 576.82 889.94 575.97 890.17 575.1C890.43 574.11 890.48 573.24 890.32 572.44C889.34 567.56 886.01 567.17 884.11 567.37L883.97 567.39C883.41 567.5 882.87 567.83 882.27 568.44C881.77 568.94 881.43 569.48 881.25 570.04C880.56 571.36 880.15 572.68 880.01 573.97C879.87 575.32 879.96 576.54 880.28 577.62C880.64 578.79 881.23 579.73 882.03 580.39Z" fill="black"/>
<path d="M1026.24 563.56C1025.56 563.04 1024.65 562.98 1023.54 563.38C1022.34 563.81 1020.94 564.52 1019.26 565.56C1017.71 566.52 1016.04 567.61 1014.32 568.8C1012.69 569.92 1011.3 570.77 1010.12 571.36C1005.37 573.91 1000.79 575.62 996.48 576.42C992.16 577.23 987.88 577.42 983.73 576.99C982 576.84 980.57 576.23 979.36 575.14C977.93 573.84 976.5 572.46 975.17 571.08C973.09 568.63 970.49 567.71 967.64 568.43C965.03 569.09 962.36 570.94 959.46 574.09C958.07 575.62 956.64 577.22 955.18 578.89C955.3 577.71 955.4 576.69 955.48 575.85C955.67 573.77 955.58 572.33 955.21 571.32C954.67 569.87 953.42 569.14 951.94 569.44C951.1 569.61 949.97 569.96 948.5 570.5L947.79 570.76L947.58 571.49C946.65 574.8 945.74 578.1 944.82 581.4C944.7 581.51 944.59 581.61 944.47 581.72C943.25 582.85 942.01 584.07 940.78 585.35C939.59 586.59 938.38 587.81 937.2 588.97C936.03 590.12 934.92 591.16 933.94 592.03C927.16 597.48 920.29 602.53 913.53 607.06C906.83 611.55 899.9 615.41 892.9 618.57C890.92 619.53 888.91 620.31 886.92 620.88C885.34 621.33 883.89 621.4 882.49 621.08C882.21 620.28 881.96 618.84 882.03 616.26C882.1 613.46 882.46 610.65 883.08 607.96C883.49 606.42 883.86 604.93 884.19 603.52C884.51 602.14 884.88 600.75 885.29 599.39C885.83 597.57 886.2 595.96 886.4 594.61C886.64 592.9 886.41 591.65 885.68 590.79C884.99 589.88 883.78 589.46 882.06 589.55C880.47 589.63 878.93 590.41 877.5 591.86L877.29 592.07L877.18 592.35C877.08 592.58 877.01 592.81 876.91 593.04C874.55 593.81 872.14 594.56 869.7 595.3C866.27 596.33 862.93 596.94 859.77 597.11L859.63 597.12C854.92 597.83 850.3 598.03 845.89 597.7C841.34 597.36 836.63 597.14 831.83 597.02C831.11 597.03 830.18 597.15 828.99 597.38C827.46 597.68 826.37 598.37 825.76 599.43L825.69 599.57C824.87 601.38 824.08 603.14 823.3 604.86C819.77 606.65 816.21 608.53 812.68 610.48C808.33 612.88 803.97 615.11 799.72 617.12C795.65 619 791.58 620.82 787.62 622.55C783.8 624.22 780.2 625.23 776.91 625.55C774.49 625.83 772.63 625.48 771.35 624.51C770.14 623.59 769.51 621.7 769.47 618.87C769.44 617.85 769.45 616.76 769.52 615.62C769.59 614.35 769.57 613.2 769.47 612.17C769.25 610.28 768.34 609.35 767.61 608.9C766.6 608.28 765.38 608.15 763.97 608.51C762.8 608.81 761.52 609.44 760.15 610.37C758.81 611.28 757.52 612.44 756.32 613.8C754.73 615.55 753.16 617.41 751.68 619.33C750.23 621.21 748.72 623.08 747.16 624.93C744.76 627.96 742.31 631.12 739.87 634.31C737.69 637.17 735.15 639.85 732.32 642.28C732.17 641.94 732.02 641.36 731.97 640.36C731.92 639.27 731.96 638.06 732.11 636.76C732.27 635.4 732.45 634.18 732.66 633.09C733.14 630.33 733.75 627.49 734.48 624.67C735.21 621.85 735.94 618.89 736.66 615.92C737.34 613.5 737.4 611.83 736.85 610.65C736.22 609.31 734.86 608.59 732.81 608.49C731.86 608.36 730.82 608.6 729.7 609.21C728.73 609.74 727.52 610.63 726 611.95L725.86 612.09C724.68 613.42 723.62 614.78 722.71 616.14C721.83 617.44 720.91 618.86 720 620.32C719.69 620.77 719.38 621.23 719.05 621.7C719.13 621.42 719.22 621.14 719.31 620.85C719.65 619.72 720.03 618.46 720.45 617.12C721.07 615.28 721.73 612.65 720.29 611C719.4 609.98 717.98 609.65 716.07 610.02C714.61 610.19 713.13 611.05 711.68 612.6C710.32 614.06 709.34 615.6 708.75 617.22C707.66 620.52 706.79 623.12 706.17 625.02C705.56 626.87 704.99 628.54 704.48 630.03C704.25 630.21 704.01 630.38 703.78 630.57C701.74 632.16 699.87 633.6 698.16 634.88C696.51 636.12 694.79 637.39 693.03 638.64C691.34 639.85 689.47 641.11 687.48 642.38C685.54 643.62 683.29 645.09 680.63 646.85C677.32 648.91 673.66 650.97 669.75 652.98C665.8 655 661.73 656.92 657.65 658.66C653.55 660.41 649.42 662.01 645.36 663.41C641.32 664.8 637.48 665.98 633.95 666.92C632.37 667.34 631.08 667.29 629.99 666.77C628.94 666.27 628.14 665.29 627.56 663.78C626.96 662.25 627.03 660.52 627.75 658.49C628.53 656.31 629.66 653.7 631.12 650.72C632.31 650.28 633.41 649.85 634.44 649.44C635.61 648.97 636.81 648.49 637.98 648.03C644.98 645.55 652.27 641.41 659.67 635.72C661.07 634.59 662.47 633.29 663.86 631.86C665.34 630.33 666.56 628.29 667.48 625.8L667.56 625.6L667.57 625.39C667.9 620.71 667.12 617.42 665.19 615.34C663.38 613.39 661.07 612.02 658.26 611.26C655.04 610.48 651.84 610.63 648.75 611.7C645.69 612.76 642.21 615.12 638.1 618.92L637.97 619.06C633.92 623.91 630.37 628.73 627.41 633.38C624.51 637.94 621.47 642.28 618.39 646.28L618.16 646.58L618.1 646.96C617.89 648.31 617.84 649.56 617.96 650.67L618.29 653.62C618.4 654.59 618.48 655.53 618.53 656.43C618.58 657.23 618.5 658.14 618.31 659.15C617.43 664.16 617.61 667.98 618.87 670.84C620.15 673.75 622.32 675.81 625.33 676.97C627.19 677.84 629.17 678.28 631.23 678.28C631.54 678.28 631.85 678.27 632.16 678.25C634.44 678.11 636.91 677.58 639.5 676.69C644.26 675.03 649.93 672.81 656.35 670.11C662.79 667.4 669.43 664.18 676.08 660.53C682.74 656.88 689.3 652.83 695.58 648.5C696.86 647.62 698.1 646.71 699.31 645.8C698.64 647.98 698.03 650.12 697.49 652.16C696.72 655.1 695.93 658.06 695.14 661.04C694.46 663.46 694.46 665.26 695.15 666.53C695.66 667.47 696.7 668.64 698.75 668.85C698.87 668.87 698.99 668.87 699.12 668.87C700.22 668.87 701.49 668.25 703.17 666.9C704.78 665.61 705.98 664.15 706.76 662.55C707.26 661.81 707.69 661.02 708.04 660.19C708.37 659.39 708.69 658.6 708.95 657.89C709.71 656.11 710.71 653.96 711.9 651.5C713.11 649 714.31 646.62 715.46 644.43C716.61 642.22 717.71 640.3 718.71 638.73C719.34 637.74 719.74 637.23 719.98 636.98C720.01 637.22 720.03 637.49 720.04 637.78C720.06 638.26 720.06 638.67 720.04 638.99V639.05V639.11C720.11 641.2 720.11 643.38 720.04 645.58C719.96 648 720.2 650.15 720.78 652.04C721.53 654.12 722.75 655.49 724.4 656.12C725.99 656.72 727.85 656.59 729.95 655.75C731.83 654.99 733.92 653.69 736.17 651.87C738.39 650.09 740.72 647.78 743.12 645L743.19 644.92C743.81 644.09 744.83 642.73 746.25 640.85C747.67 638.97 749.16 636.98 750.72 634.89C752.24 632.85 753.73 631 755.17 629.38C756.22 628.2 756.92 627.58 757.37 627.25C757.43 627.36 757.51 627.53 757.61 627.79C759.46 633.18 762.74 636.39 767.34 637.35C771.75 638.27 777.21 637.32 783.98 634.48C785.29 633.98 786.58 633.45 787.82 632.9C789.01 632.37 790.26 631.86 791.56 631.36C796.91 629.11 802.48 626.33 808.1 623.12C811.26 621.32 814.49 619.41 817.75 617.43C817.2 618.69 816.65 619.95 816.12 621.19C815.23 623.08 814.48 625.02 813.87 626.97C813.28 628.89 812.72 630.81 812.21 632.72C811.42 636.11 811.16 639.13 811.45 641.72C811.75 644.45 812.55 646.59 813.83 648.08C815.2 649.68 817.02 650.5 819.22 650.5C819.23 650.5 819.23 650.5 819.24 650.5C821.31 650.5 823.54 649.67 826.06 647.97C830.38 645.02 833.99 641.18 836.8 636.57C839.56 632.03 841.69 626.77 843.11 620.94C843.44 619.91 843.69 618.95 843.85 618.09C844 617.28 844.13 616.5 844.25 615.76L844.63 613.37C844.72 612.79 844.84 612.09 844.99 611.28C847.33 611.16 849.77 610.82 852.27 610.27C855.17 609.63 858.15 608.88 861.15 608.04C864.45 607.03 867.56 606.08 870.5 605.2C871.56 604.88 872.64 604.52 873.73 604.14C873.15 607.23 872.58 610.26 872.04 613.22C871.13 618.96 871.46 623.38 873.04 626.71C874.71 630.22 877.69 632.16 881.72 632.32C881.74 632.32 881.76 632.32 881.79 632.32C883.62 632.32 885.58 632.11 887.62 631.7C889.73 631.28 891.86 630.54 893.91 629.52C909.64 622.38 925.27 611.67 940.48 597.65C940.01 599.46 939.54 601.27 939.09 603.05C938.69 604.56 938.33 606.06 938.04 607.52C937.75 608.98 937.52 610.47 937.36 612.04C937.12 616.29 939.51 617.43 940.96 617.73L941.2 617.76C941.3 617.76 941.4 617.77 941.51 617.77C942.64 617.77 943.76 617.49 944.84 616.94C946.1 616.3 947.14 615.08 948.03 613.22C948.83 611.85 949.53 610.41 950.1 608.93C950.63 607.58 951.23 606.25 951.92 604.95C953.48 601.8 955.06 598.65 956.66 595.49C958.24 592.38 959.88 589.26 961.54 586.22C962.44 584.61 963.51 583.18 964.72 581.95C965.59 581.08 966.52 580.5 967.57 580.22C969.1 582.08 970.84 583.53 972.75 584.53C974.82 585.62 977.05 586.41 979.37 586.89C981.67 587.36 984.12 587.61 986.65 587.57C989.15 587.55 991.69 587.41 994.16 587.15C999.1 586.78 1004.11 585.22 1009.06 582.51C1013.91 579.86 1018.9 576.31 1023.88 571.96L1023.96 571.88C1024.53 571.3 1025.04 570.49 1025.51 569.39C1025.89 568.51 1026.39 567.49 1026.99 566.36L1027.14 566.08L1027.16 565.76C1027.18 564.54 1026.68 563.89 1026.24 563.56ZM834.95 613.35C834.91 614.55 834.7 615.85 834.33 617.26C833.44 620.87 832.17 624.27 830.56 627.38C828.98 630.42 826.94 633 824.42 635.09C823.98 635.49 823.5 635.72 822.95 635.79C822.77 635.81 822.6 635.84 822.42 635.88C823.08 632.3 824.04 628.95 825.3 625.89C826.85 622.13 828.8 618.47 831.1 615C831.88 613.78 832.69 612.82 833.5 612.14C833.84 611.86 834.06 611.78 834.22 611.78C834.33 611.78 834.41 611.82 834.46 611.85C834.59 611.94 834.99 612.21 834.95 613.35ZM641.74 634.32C645.26 628.99 648.13 625.58 650.27 624.17C650.95 623.72 651.67 623.36 652.43 623.36C653.21 623.36 654.05 623.74 654.94 624.77C653.69 626.27 652.64 627.49 651.81 628.4C650.89 629.39 649.87 630.25 648.78 630.95C647.64 631.68 646.21 632.42 644.53 633.15C643.74 633.49 642.81 633.88 641.74 634.32Z" fill="black"/>
<path d="M357.34 554.69C346.85 549.33 335.53 548.23 323.97 547.94C276.6 546.76 229.43 550.44 182.49 555.76C129.38 561.79 76.5 569.97 26.11 589.17C17.53 592.44 8.98002 595.98 2.43002 602.85C0.270022 605.12 -0.819972 608.02 0.920028 610.68C2.92003 613.74 5.53004 612.02 8.35004 610.97C37.67 600.03 65.92 605.93 93.81 616.75C124.77 634.55 135.48 660.1 125.08 694.78C118.41 717.04 113.17 739.73 107.55 762.3C106.73 765.6 102.18 769.94 108.17 772.61C112.27 774.44 114.48 771.81 116.13 769.04C121.37 764.99 163.24 702.57 165.19 698.39C167.42 693.62 169.92 688.98 172.37 684.32C173.91 681.4 175.44 678.46 176.86 675.49C183.42 661.81 194.24 649.1 197.3 633.63C197.5 632.63 197.54 629.47 196.08 630.75C194.62 632.03 145.26 709.1 145.26 709.1L131.36 731.03L120.57 744.85L125 731.2C125 731.2 130.47 702.06 134.98 688C146.18 653.09 112.43 621.31 94.09 612.88C75.75 604.45 80.78 605.22 73.54 602.82C68.14 601.03 62.35 600.41 56.71 599.38C51.13 598.36 44.81 599.66 39.01 592.96C142.72 565.35 246.17 549.67 352.43 558.8C358.78 563.75 365.14 568.69 371.49 573.64C371.63 562.96 367.46 556.33 357.34 554.69Z" fill="black"/>
</svg>
